<svg id="Layer_1" data-name="Layer 1" xmlns="http://www.w3.org/2000/svg" viewBox="0 0 293.37 304.99"><defs><style>.cls-1{fill:#fff;}.cls-2{fill:#363636;}</style></defs><path class="cls-1" d="M33.54,265.68H259.83V39.31H33.54Z"/><path class="cls-2" d="M161.9,166.07h46.72v-43h9.71c3.5,0,7,.13,10.5,0,2.21-.11,2.82.59,2.81,2.8-.09,17.49-.06,35-.06,52.49q0,24.89,0,49.75v3.29H208.77V185.39H161.83v45.9H139.07v-62.5c-3.81,1.77-7.18,3.79-10.83,5-18,5.76-35.62,5.29-52.3-4.2-12.28-7-19.13-18.24-22.22-31.73a73.46,73.46,0,0,1,.58-36.55c5.45-19.48,18.45-31.07,38.14-35C104.62,63.8,115.11,64,127,68c17.89,6.08,29.86,19.06,33.75,37.27,1.53,7.2,1.51,14.49,1.3,21.85C161.63,140.05,161.9,153,161.9,166.07ZM139,120.74c-.44-3.87-.64-7.79-1.36-11.61-1.64-8.7-5.51-16.19-13-21.29-5.1-3.46-10.91-4.6-17-4.77C92.8,82.65,82,90,77.52,104a54,54,0,0,0,0,33.38C81.7,150.2,90.38,157.93,104.16,159c13.15,1,24.86-4,30.63-17C137.78,135.23,138.74,128.09,139,120.74Z"/></svg>