<svg id="Layer_1" data-name="Layer 1" xmlns="http://www.w3.org/2000/svg" viewBox="0 0 200 200"><g id="_07CdG6.tif" data-name="07CdG6.tif"><path d="M97.62,17.75c14-8.71,52.52,9,69.15,30.47,25.64,33.15,22.88,79.9-6.54,110.82C132.55,188.11,85.78,193,51.86,170.22,22.84,150.77,11.55,115,17.05,98c.5,1.75,1.38,3.5,1.43,5.26.57,19.9,7.81,37,21.35,51.5,16.62,17.81,37.1,26.69,61.49,26,31.4-.89,54.24-16.05,69.79-42.74,15.37-26.37,11.44-65.77-8.44-89C146.94,30.65,127.59,19.72,103,19,101.19,19,99.41,18.19,97.62,17.75Z"/></g></svg>