<svg id="Layer_1" data-name="Layer 1" xmlns="http://www.w3.org/2000/svg" viewBox="0 0 612 187.63"><defs><style>.cls-1{fill:#fff;}.cls-2{fill:#a10036;}</style></defs><path class="cls-1" d="M532.5,28.84h73v130H32.5v-41c.64,2,1.31,4,1.92,6.06,5.49,18.26,24.1,32,41.87,30.45V78.17c0-16.45.13-32.9.2-49.35h30V154.5c21.66.88,41.94-17.41,43-39.29.74-14.94.68-30,.09-44.91-.65-16.48-9-28.75-23.65-36.12-5.31-2.71-11.58-3.61-17.43-5.34h423a40.35,40.35,0,0,0-.58,4.91q-.06,58.23,0,116.47c0,1.44.19,2.88.28,4.27,22,1,42.69-18.42,43.26-40.79.36-14.32.28-28.66,0-43-.34-18.26-14-35.21-31.73-39.8C539.37,30,535.91,29.52,532.5,28.84Zm-167.08,125a23,23,0,0,0-.36-2.33q-17.71-59-35.38-117.9c-.83-2.79-2.07-3.61-4.86-3.61-10.5.12-21,0-31.5,0H283.14c3.64,12.16,7,23.42,10.39,34.69Q306.15,107,318.85,149.2c.53,1.73,2.24,4.4,3.45,4.43,14.29.31,28.59.2,43.12.2Zm-76.64,0-5.3-17.73Q268.21,85.29,252.84,34.48c-.51-1.68-2.34-4.2-3.6-4.22-14.13-.26-28.24-.2-42.78-.2.47,2,.77,3.6,1.23,5.15q16.08,53.7,32.18,107.4c3.38,11.24,3.41,11.23,15.07,11.23ZM385.94,30.3V153.6h43.21V30.3ZM500.27,153.57V30.33H457.43V153.57Zm-334.88-.08h46.36L187,72.43c-7.44,27.91-14.51,54.41-21.61,81.06Z"/><rect class="cls-2" width="612" height="187.63"/><path class="cls-1" d="M532.5,28.84c3.41.68,6.87,1.2,10.23,2.07,17.73,4.59,31.39,21.54,31.73,39.8.26,14.33.34,28.67,0,43-.57,22.37-21.21,41.81-43.26,40.79-.09-1.39-.28-2.83-.28-4.27V33.76a40.35,40.35,0,0,1,.58-4.91Z"/><path class="cls-1" d="M76.5,28.84c-.07,16.45-.18,32.9-.2,49.35q-.06,35.41,0,70.83v5.33c-17.77,1.54-36.38-12.19-41.87-30.45-.61-2-1.28-4-1.92-6.06v-51c.4-1.42.82-2.83,1.21-4.26,4.28-15.58,14-26,29.21-31.23,3.41-1.16,7.07-1.69,10.57-2.51Z"/><path class="cls-1" d="M108.5,28.84c5.85,1.73,12.12,2.63,17.5,5.34,14.64,7.37,23,19.64,23.65,36.12.59,15,.65,30-.09,44.91-1.1,21.88-21.38,40.17-43,39.29V28.84Z"/><path class="cls-1" d="M365.42,153.83c-14.53,0-28.83.11-43.12-.2-1.21,0-2.92-2.7-3.45-4.43Q306.05,107,293.53,64.69c-3.37-11.27-6.75-22.53-10.39-34.69h10.18c10.5,0,21,.12,31.5,0,2.79,0,4,.82,4.86,3.61q17.56,59,35.38,117.89A23,23,0,0,1,365.42,153.83Z"/><path class="cls-1" d="M288.78,153.84H254.94c-11.66,0-11.69,0-15.07-11.23q-16.11-53.69-32.18-107.4c-.46-1.55-.76-3.15-1.23-5.15,14.52,0,28.65-.11,42.78.2,1.26,0,3.09,2.54,3.6,4.22q15.46,50.78,30.64,101.63C285.19,141.81,286.89,147.51,288.78,153.84Z"/><path class="cls-1" d="M392.94,30.3h43.21V153.6H392.94Z"/><path class="cls-1" d="M508.27,153.57H465.43V30.33h42.84Z"/><path class="cls-1" d="M168.39,153.49c7.31-27.44,14.36-53.85,21.61-81.06l24.75,81.06Z"/></svg>