<svg id="Layer_1" data-name="Layer 1" xmlns="http://www.w3.org/2000/svg" viewBox="0 0 612 124.53"><defs><style>.cls-1{fill:#fff;}</style></defs><path class="cls-1" d="M532.5-1.16h73v130H32.5v-41c.64,2,1.31,4,1.92,6.06,5.49,18.26,24.1,32,41.87,30.45V119q0-35.42,0-70.83c0-16.45.13-32.9.2-49.35h30V124.5c21.66.88,41.94-17.41,43-39.29.74-14.94.68-30,.09-44.91-.65-16.48-9-28.75-23.65-36.12C120.62,1.47,114.35.57,108.5-1.16h423a41.06,41.06,0,0,0-.58,4.91q-.06,58.23,0,116.47c0,1.44.19,2.88.28,4.27,22.05,1,42.69-18.42,43.26-40.79.36-14.32.28-28.66,0-43-.34-18.26-14-35.21-31.73-39.8C539.37,0,535.91-.48,532.5-1.16Zm-167.08,125a20.55,20.55,0,0,0-.36-2.33Q347.35,62.55,329.68,3.61C328.85.82,327.61,0,324.82,0c-10.5.12-21,0-31.5,0H283.14c3.64,12.16,7,23.42,10.39,34.69Q306.15,77,318.85,119.2c.53,1.73,2.24,4.4,3.45,4.43C336.59,123.94,350.89,123.83,365.42,123.83Zm-76.64,0c-1.89-6.33-3.59-12-5.3-17.73Q268.21,55.29,252.84,4.48c-.51-1.68-2.34-4.2-3.6-4.22C235.11,0,221,.06,206.46.06c.47,2,.77,3.6,1.23,5.15q16.08,53.7,32.18,107.4c3.38,11.24,3.41,11.23,15.07,11.23ZM385.94.3V123.6h43.21V.3ZM500.27,123.57V.33H457.43V123.57Zm-334.88-.08h46.36L187,42.43C179.56,70.34,172.49,96.84,165.39,123.49Z"/><path d="M532.5-1.16c3.41.68,6.87,1.2,10.23,2.07,17.73,4.59,31.39,21.54,31.73,39.8.26,14.33.34,28.67,0,43-.57,22.37-21.21,41.81-43.26,40.79-.09-1.39-.28-2.83-.28-4.27q0-58.23,0-116.47a41.06,41.06,0,0,1,.58-4.91Z"/><path d="M76.5-1.16c-.07,16.45-.18,32.9-.2,49.35q-.06,35.41,0,70.83v5.33c-17.77,1.54-36.38-12.19-41.87-30.45-.61-2-1.28-4-1.92-6.06v-51c.4-1.42.82-2.83,1.21-4.26C38,17,47.67,6.54,62.93,1.35,66.34.19,70-.34,73.5-1.16Z"/><path d="M108.5-1.16C114.35.57,120.62,1.47,126,4.18c14.64,7.37,23,19.64,23.65,36.12.59,15,.65,30-.09,44.91-1.1,21.88-21.38,40.17-43,39.29V-1.16Z"/><path class="cls-1" d="M73.5-1.16C70-.34,66.34.19,62.93,1.35,47.67,6.54,38,17,33.71,32.58c-.39,1.43-.81,2.84-1.21,4.26v-38Z"/><path d="M365.42,123.83c-14.53,0-28.83.11-43.12-.2-1.21,0-2.92-2.7-3.45-4.43Q306.05,77,293.53,34.69C290.16,23.42,286.78,12.16,283.14,0h10.18c10.5,0,21,.12,31.5,0,2.79,0,4,.82,4.86,3.61q17.56,59,35.38,117.89A20.55,20.55,0,0,1,365.42,123.83Z"/><path d="M288.78,123.84H254.94c-11.66,0-11.69,0-15.07-11.23Q223.76,58.92,207.69,5.21c-.46-1.55-.76-3.15-1.23-5.15,14.52,0,28.65-.11,42.78.2,1.26,0,3.09,2.54,3.6,4.22q15.46,50.77,30.64,101.63C285.19,111.81,286.89,117.51,288.78,123.84Z"/><path d="M385.94.3h43.21V123.6H385.94Z"/><path d="M500.27,123.57H457.43V.33h42.84Z"/><path d="M165.39,123.49c7.1-26.65,14.17-53.15,21.61-81.06l24.75,81.06Z"/></svg>