<svg id="Layer_1" data-name="Layer 1" xmlns="http://www.w3.org/2000/svg" viewBox="0 0 242.13 308.54">
<defs>
<style>.cls-1{fill:#2d2d2d;}.cls-2{fill:#2a2a2a;}.cls-3{font-size:37.62px;fill:#161616;font-family:Striated-MediumTrial, Striated;font-weight:500;}</style>
</defs>
<g id="_1UI6z3.tif" data-name="1UI6z3.tif">
<path class="cls-1" d="M242,154.37c0,42.5-.21,85,.12,127.49.11,13.05-8.75,24.39-21.1,26.3a28.91,28.91,0,0,1-4.46.32q-95.49,0-191,.06A25.6,25.6,0,0,1,0,282.9c.14-43.57,0-87.14.05-130.72Q.07,107.07.1,62c0-12,0-24,0-36C.05,10.94,10.94,0,26,0q37,0,74,0,58.11,0,116.23,0c11.44,0,20.67,6.31,24.31,16.84a28.69,28.69,0,0,1,1.39,9Q242.08,90.12,242,154.37Zm-10,.08v-128c0-10.21-6.24-16.41-16.52-16.41q-94.61,0-189.21,0a19.35,19.35,0,0,0-5.41.68c-6.88,2.05-10.8,7.76-10.8,15.54q0,65.47,0,130.94v73.48c0,17.41,0,34.82,0,52.23,0,8.81,6.59,15.51,15.16,15.51,63.49,0,127-.09,190.46.08a16,16,0,0,0,16.42-16.38C231.9,239.6,232,197,232,154.45Z"/>
<path class="cls-1" d="M117.77,160.92H199c3.51,0,5.59,1.85,5.59,4.9s-2.19,5.07-5.82,5.08c-9.75,0-19.5,0-29.25,0-44.16,0-88.32-.06-132.49.07-5.16,0-7.71-4.39-5.77-7.49a5.15,5.15,0,0,1,4.76-2.6q24.61.06,49.25,0Z"/>
<path class="cls-1" d="M117.06,271.54h-81c-4.32,0-6.64-2.69-5.62-6.4a4.8,4.8,0,0,1,4.32-3.57,18,18,0,0,1,2.75-.08H197.75c3.87,0,6.11,1.63,6.28,4.55.21,3.39-1.72,5.48-5.23,5.49q-17.75,0-35.49,0Z"/>
<path class="cls-1" d="M117.22,223.89h81c3.46,0,5.41,1.42,5.8,4.18a5,5,0,0,1-4.49,5.79,18.57,18.57,0,0,1-2.24,0H36.35c-3.46,0-5.22-1.13-6-3.76A4.86,4.86,0,0,1,34.5,224a22.74,22.74,0,0,1,2.74-.06Z"/>
<path class="cls-1" d="M117,201.66H37.28c-4.82,0-7.19-1.65-7.18-5s2.56-5.12,7.18-5.12q79.73,0,159.45,0a14.76,14.76,0,0,1,3.7.37c2.58.66,3.86,2.74,3.6,5.5a4.67,4.67,0,0,1-4.54,4.16c-3.74.12-7.5.06-11.24.06Z"/>
<path class="cls-1" d="M117.54,138.58q-40,0-79.92,0a11.7,11.7,0,0,1-3.94-.37,4.91,4.91,0,0,1-.15-9,9.88,9.88,0,0,1,3.63-.64q41,0,81.94,0,39.21,0,78.42,0a13.24,13.24,0,0,1,3.67.45,4.68,4.68,0,0,1,3.39,5.16,5.08,5.08,0,0,1-4.62,4.38c-4.32.1-8.64.07-13,.07Z"/>
<path class="cls-2" d="M61.69,101.06c-7,0-14.11,0-21.17,0-3.53,0-6.24-2.16-6.24-5.53A150.87,150.87,0,0,1,35,77c.74-5.89,4.11-10.72,8.51-14.7,1.72-1.55,3.52-1.43,5,.38a17,17,0,0,0,26.66.11c1.72-2.12,3.41-2.1,5.43-.21a27,27,0,0,1,9,20c.06,3.74,0,7.48,0,11.23,0,5.06-2.13,7.25-7.15,7.25Zm-16-34.84a21.65,21.65,0,0,0-6.92,14c-.36,4.49-.19,9-.22,13.54,0,2.71.33,3,3.07,3l31.54,0h9.74c1.33,0,2.47-.35,2.44-2-.1-5.42.06-10.88-.51-16.25-.52-4.86-3.06-8.95-6.64-12.36C68.78,75.89,54.94,75.87,45.65,66.22Z"/>
<path class="cls-2" d="M76.42,50.51A14.36,14.36,0,0,1,62,65a14.62,14.62,0,1,1-.07-29.24A14.53,14.53,0,0,1,76.42,50.51Zm-4.25-.18A10.43,10.43,0,0,0,61.78,40,10.68,10.68,0,0,0,51.47,50.52,10.49,10.49,0,0,0,62,60.77,10.3,10.3,0,0,0,72.17,50.33Z"/>
</g><text class="cls-3" transform="translate(96.72 85.79) scale(0.97 1)">RESUME</text>
</svg>