<svg id="Layer_1" data-name="Layer 1" xmlns="http://www.w3.org/2000/svg" viewBox="0 0 242.13 212.21"><defs><style>.cls-1{font-size:92.56px;font-family:Striated-MediumTrial, Striated;font-weight:500;}.cls-1,.cls-2{fill:#fff;}</style></defs><text class="cls-1" transform="translate(-1.68 164.08) scale(0.86 1)">RESUME</text><path class="cls-2" d="M52.92,19.75h95.73V62.56c11.76,0,22.44.49,33-.16,7.94-.5,10.53,1.77,10.43,10.05,0,2.65-.05,5.29-.07,7.94h17.31V78.76C209.34,65,213,49.69,208.08,38,203,26,189.81,17.17,179.52,7.66c-3.37-3.1-8.76-5.6-13.26-5.65C125.63,1.58,85,1.75,44.35,1.78c-2.93,0-5.86.26-8.64.39V79.85H52.92Zm113.41,3L188.15,45H166.33Z"/><path class="cls-2" d="M191.31,193.42H35.58v16.89H209.36V193.42Z"/></svg>