<?xml version="1.0" encoding="utf-8"?>
<!-- Generator: Adobe Illustrator 26.3.1, SVG Export Plug-In . SVG Version: 6.00 Build 0)  -->
<svg version="1.1" id="Layer_1" xmlns="http://www.w3.org/2000/svg" xmlns:xlink="http://www.w3.org/1999/xlink" x="0px" y="0px"
	 viewBox="0 0 242.1 212.2" style="enable-background:new 0 0 242.1 212.2;" xml:space="preserve">
<style type="text/css">
	.st0{display:none;}
	.st1{display:inline;fill:#2D2D2D;}
	.st2{display:inline;fill:#2A2A2A;}
	.st3{fill:#535353;}
	.st4{font-family:'Striated-MediumTrial';}
	.st5{font-size:92.5639px;}
	.st6{fill:#FFFFFF;}
</style>
<g id="_1UI6z3.tif" class="st0">
	<path class="st1" d="M543.6,112.8c0,42.5-0.2,85,0.1,127.5c0.1,13-8.8,24.4-21.1,26.3c-1.5,0.2-3,0.3-4.5,0.3
		c-63.7,0-127.3,0-191,0.1c-14.1,0-25.6-11.5-25.6-25.6l0,0c0.1-43.6,0-87.1,0.1-130.7c0-30.1,0-60.1,0-90.2c0-12,0-24,0-36
		c0-15.1,10.8-26,25.9-26c24.7,0,49.3,0,74,0c38.7,0,77.5,0,116.2,0c11.4,0,20.7,6.3,24.3,16.8c0.9,2.9,1.4,5.9,1.4,9
		C543.6,27.1,543.7,69.9,543.6,112.8z M533.6,112.8v-128c0-10.2-6.2-16.4-16.5-16.4c-63.1,0-126.1,0-189.2,0c-1.8,0-3.6,0.2-5.4,0.7
		c-6.9,2.1-10.8,7.8-10.8,15.5c0,43.6,0,87.3,0,130.9V189c0,17.4,0,34.8,0,52.2c0,8.8,6.6,15.5,15.2,15.5c63.5,0,127-0.1,190.5,0.1
		c8.8,0.2,16.2-6.7,16.4-15.6c0-0.3,0-0.5,0-0.8C533.5,198,533.6,155.4,533.6,112.8z"/>
	<path class="st1" d="M419.4,119.3h81.2c3.5,0,5.6,1.9,5.6,4.9s-2.2,5.1-5.8,5.1c-9.8,0-19.5,0-29.2,0c-44.2,0-88.3-0.1-132.5,0.1
		c-5.2,0-7.7-4.4-5.8-7.5c1-1.7,2.8-2.7,4.8-2.6c16.4,0,32.8,0,49.2,0L419.4,119.3z"/>
	<path class="st1" d="M418.7,229.9h-81c-4.3,0-6.6-2.7-5.6-6.4c0.5-2,2.3-3.4,4.3-3.6c0.9-0.1,1.8-0.1,2.8-0.1h160.2
		c3.9,0,6.1,1.6,6.3,4.5c0.2,3.4-1.7,5.5-5.2,5.5c-11.8,0-23.7,0-35.5,0L418.7,229.9z"/>
	<path class="st1" d="M418.8,182.3h81c3.5,0,5.4,1.4,5.8,4.2c0.4,2.7-1.4,5.3-4.1,5.7c-0.1,0-0.2,0-0.4,0c-0.7,0-1.5,0-2.2,0H338
		c-3.5,0-5.2-1.1-6-3.8c-0.7-2.6,0.8-5.3,3.4-6c0.2-0.1,0.5-0.1,0.7-0.1c0.9-0.1,1.8-0.1,2.7-0.1L418.8,182.3z"/>
	<path class="st1" d="M418.6,160h-79.7c-4.8,0-7.2-1.6-7.2-5s2.6-5.1,7.2-5.1c53.2,0,106.3,0,159.4,0c1.2,0,2.5,0.1,3.7,0.4
		c2.6,0.7,3.9,2.7,3.6,5.5c-0.3,2.3-2.2,4.1-4.5,4.2c-3.7,0.1-7.5,0.1-11.2,0.1L418.6,160z"/>
	<path class="st1" d="M419.1,97c-26.7,0-53.3,0-79.9,0c-1.3,0.1-2.7,0-3.9-0.4c-2.5-1-3.7-3.9-2.6-6.4c0.5-1.1,1.4-2.1,2.5-2.6
		c1.2-0.4,2.4-0.7,3.6-0.6c27.3,0,54.6,0,81.9,0c26.1,0,52.3,0,78.4,0c1.2,0,2.5,0.1,3.7,0.4c2.3,0.6,3.7,2.8,3.4,5.2
		c-0.3,2.4-2.2,4.2-4.6,4.4c-4.3,0.1-8.6,0.1-13,0.1L419.1,97z"/>
	<path class="st2" d="M363.3,59.4c-7,0-14.1,0-21.2,0c-3.5,0-6.2-2.2-6.2-5.5c-0.1-6.2,0.1-12.4,0.7-18.5c0.7-5.9,4.1-10.7,8.5-14.7
		c1.7-1.5,3.5-1.4,5,0.4c5.8,7.4,16.5,8.7,23.9,2.9c1-0.8,2-1.7,2.8-2.8c1.7-2.1,3.4-2.1,5.4-0.2c5.7,5.1,9,12.4,9,20
		c0.1,3.7,0,7.5,0,11.2c0,5.1-2.1,7.2-7.1,7.2H363.3z M347.3,24.6c-4,3.6-6.4,8.6-6.9,14c-0.4,4.5-0.2,9-0.2,13.5c0,2.7,0.3,3,3.1,3
		h31.5h9.7c1.3,0,2.5-0.3,2.4-2c-0.1-5.4,0.1-10.9-0.5-16.2c-0.5-4.9-3.1-8.9-6.6-12.4C370.4,34.3,356.5,34.3,347.3,24.6L347.3,24.6
		z"/>
	<path class="st2" d="M378,8.9c0.1,7.9-6.3,14.4-14.2,14.5c-0.1,0-0.1,0-0.2,0c-8.1,0-14.6-6.5-14.7-14.6
		c-0.1-8.1,6.5-14.6,14.6-14.7c8,0,14.5,6.5,14.5,14.6C378,8.8,378,8.8,378,8.9z M373.8,8.7c-0.1-5.7-4.7-10.3-10.4-10.3
		c-5.7,0.2-10.2,4.8-10.3,10.5c0.1,5.7,4.8,10.3,10.5,10.2C369.3,19.1,373.8,14.4,373.8,8.7L373.8,8.7z"/>
</g>
<text transform="matrix(0.97 0 0 1 398.3198 44.1787)" class="st4" style="display:none;fill:#161616;enable-background:new    ; font-size:37.62px;">RESUME</text>
<g>
	<text transform="matrix(0.8587 0 0 1 -1.6807 164.0801)" class="st3 st4 st5">RESUME</text>
</g>
<g>
	<path class="st3" d="M52.9,19.8c32.5,0,63.5,0,95.7,0c0,14.4,0,28.3,0,42.8c11.8,0,22.4,0.5,33-0.2c7.9-0.5,10.5,1.8,10.4,10.1
		c0,2.6-0.1,5.3-0.1,7.9h17.3c0-0.5,0-1.1,0-1.6c0-13.7,3.7-29.1-1.3-40.8c-5.1-12-18.3-20.8-28.6-30.3c-3.4-3.1-8.8-5.6-13.3-5.7
		C125.6,1.6,85,1.8,44.3,1.8c-2.9,0-5.9,0.3-8.6,0.4c0,26.4,0,51.9,0,77.7c5.7,0,10.7,0,17.2,0C52.9,59.5,52.9,39.6,52.9,19.8z
		 M166.3,22.7c7,7.2,14.6,14.9,21.8,22.3c-6.2,0-13.7,0-21.8,0C166.3,36.9,166.3,29.2,166.3,22.7z"/>
	<path class="st3" d="M191.3,193.4c-1.1,0-2.1,0-3.2,0c-51.2,0-101.9,0-152.6,0c0,6.4,0,11.4,0,16.9c57.8,0,115.1,0,173.8,0
		c0-4,0-7.3,0-10.6c0-2.1,0-4.2,0-6.3L191.3,193.4L191.3,193.4z"/>
</g>
<text transform="matrix(0.8587 0 0 1 572.3193 164.0801)" class="st6 st4 st5">RESUME</text>
<g>
	<path class="st6" d="M626.9,19.8c32.5,0,63.5,0,95.7,0c0,14.4,0,28.3,0,42.8c11.8,0,22.4,0.5,33-0.2c7.9-0.5,10.5,1.8,10.4,10.1
		c0,2.6-0.1,5.3-0.1,7.9h17.3c0-0.5,0-1.1,0-1.6c0-13.7,3.7-29.1-1.3-40.8c-5.1-12-18.3-20.8-28.6-30.3c-3.4-3.1-8.8-5.6-13.3-5.7
		c-40.4-0.4-81-0.2-121.7-0.2c-2.9,0-5.9,0.3-8.6,0.4c0,26.4,0,51.9,0,77.7c5.7,0,10.7,0,17.2,0C626.9,59.5,626.9,39.6,626.9,19.8z
		 M740.3,22.7c7,7.2,14.6,14.9,21.8,22.3c-6.2,0-13.7,0-21.8,0C740.3,36.9,740.3,29.2,740.3,22.7z"/>
	<path class="st6" d="M765.3,193.4c-1.1,0-2.1,0-3.2,0c-51.2,0-101.9,0-152.6,0c0,6.4,0,11.4,0,16.9c57.8,0,115.1,0,173.8,0
		c0-4,0-7.3,0-10.6c0-2.1,0-4.2,0-6.3L765.3,193.4L765.3,193.4z"/>
</g>
</svg>
