<svg id="Layer_1" data-name="Layer 1" xmlns="http://www.w3.org/2000/svg" viewBox="0 0 242.1 212.2"><defs><style>.cls-1{isolation:isolate;font-size:92.56px;font-family:Striated-MediumTrial, Striated;font-weight:500;}.cls-1,.cls-3{fill:#9ba3af;}.cls-2{letter-spacing:-0.01em;}</style></defs><text class="cls-1" transform="translate(-1.68 164.08) scale(0.86 1)"><tspan class="cls-2">RE</tspan><tspan x="90.9" y="0">SUME</tspan></text><path class="cls-3" d="M52.9,19.8h95.7V62.6c11.8,0,22.4.5,33-.2,7.9-.5,10.5,1.8,10.4,10.1,0,2.6-.1,5.3-.1,7.9h17.3V78.8c0-13.7,3.7-29.1-1.3-40.8-5.1-12-18.3-20.8-28.6-30.3C175.9,4.6,170.5,2.1,166,2c-40.4-.4-81-.2-121.7-.2-2.9,0-5.9.3-8.6.4V79.9H52.9Zm113.4,2.9c7,7.2,14.6,14.9,21.8,22.3H166.3Z"/><path class="cls-3" d="M191.3,193.4H35.5v16.9H209.3V193.4Z"/></svg>