<svg id="Layer_1" data-name="Layer 1" xmlns="http://www.w3.org/2000/svg" viewBox="0 0 150 150"><defs><style>.cls-1,.cls-2,.cls-3{fill:none;}.cls-1,.cls-2,.cls-3,.cls-4{stroke:#000;}.cls-1{stroke-linecap:round;stroke-linejoin:round;}.cls-2,.cls-3,.cls-4{stroke-miterlimit:10;}.cls-2{stroke-width:2px;}.cls-5{font-size:13.86px;font-family:MyriadPro-Regular, Myriad Pro;}</style></defs><circle class="cls-1" cx="58.34" cy="40.95" r="8.36"/><path class="cls-1" d="M42.54,68.28c0-10.35,7.07-18.73,15.8-18.73"/><path class="cls-1" d="M73.7,68.28c0-10.35-7.06-18.73-15.8-18.73"/><rect class="cls-2" x="23.69" y="7.43" width="102.61" height="135.15" rx="12"/><path class="cls-3" d="M117.47,115.91a17.61,17.61,0,0,1-17.38,17.73H49a17.61,17.61,0,0,1-17.38-17.73V36.08A17.61,17.61,0,0,1,49,18.35"/><rect class="cls-4" x="82.29" y="36.05" width="27.88" height="0.83" rx="0.24"/><rect class="cls-4" x="82.29" y="46.5" width="27.88" height="0.83" rx="0.41"/><rect class="cls-4" x="82.29" y="56.95" width="27.88" height="0.83" rx="0.24"/><rect class="cls-4" x="82.29" y="67.4" width="27.88" height="0.83" rx="0.41"/><path class="cls-4" d="M108.41,80.27H41.92c-.56,0-1,.15-1,.33h0c0,.19.46.34,1,.34h66.49c.56,0,1-.15,1-.34h0C109.42,80.42,109,80.27,108.41,80.27Z"/><path class="cls-4" d="M65.22,92.53H41.11c-.2,0-.37.08-.37.17h0c0,.09.17.17.37.17H65.22c.2,0,.37-.08.37-.17h0C65.59,92.61,65.42,92.53,65.22,92.53Z"/><path class="cls-4" d="M69.36,104.8H41.17c-.24,0-.43,0-.43.09h0s.19.08.43.08H69.36c.24,0,.43,0,.43-.08h0S69.6,104.8,69.36,104.8Z"/><path class="cls-4" d="M92,104.8H73.67c-.16,0-.28,0-.28.11h0c0,.06.12.11.28.11H92c.15,0,.28,0,.28-.11h0C92.24,104.85,92.11,104.8,92,104.8Z"/><path class="cls-4" d="M110,104.8H95.63c-.12,0-.22,0-.22.09h0s.1.08.22.08H110c.12,0,.22,0,.22-.08h0S110.07,104.8,110,104.8Z"/><path class="cls-4" d="M108.82,92.53H69.21c-.33,0-.6.09-.6.2h0c0,.11.27.2.6.2h39.61c.33,0,.6-.09.6-.2h0C109.42,92.62,109.15,92.53,108.82,92.53Z"/><path class="cls-4" d="M81.28,117.07H41.51c-.33,0-.61.08-.61.17h0c0,.09.28.17.61.17H81.28c.34,0,.61-.08.61-.17h0C81.89,117.15,81.62,117.07,81.28,117.07Z"/><path class="cls-4" d="M109.07,117.07H85.32a2.3,2.3,0,0,1,.36,0h23.39a2.22,2.22,0,0,1,.35,0h-.35Z"/><text class="cls-5" transform="translate(55.26 22.48)">resume</text><line class="cls-3" x1="117.47" y1="90.81" x2="117.47" y2="114.65"/><line class="cls-3" x1="117.47" y1="73.81" x2="117.47" y2="88.58"/><line class="cls-3" x1="117.47" y1="67.04" x2="117.47" y2="72.58"/></svg>